<?xml version="1.0" encoding="UTF-8" standalone="no"?>
<svg
   xmlns:dc="http://purl.org/dc/elements/1.1/"
   xmlns:cc="http://creativecommons.org/ns#"
   xmlns:rdf="http://www.w3.org/1999/02/22-rdf-syntax-ns#"
   xmlns:svg="http://www.w3.org/2000/svg"
   xmlns="http://www.w3.org/2000/svg"
   version="1.1"
   id="svg2"
   viewBox="0 0 520.00001 110"
   height="110"
   width="520">
  <defs
     id="defs4" />
  <g
     transform="translate(0,-942.36214)"
     id="layer1">
    <path
       id="path4182"
       d="M 210.92383,942.29184 A 5.0005,5.0005 0 0 0 206,947.36215 l 0,80.00005 a 5.0005,5.0005 0 1 0 10,0 l 0,-17.9297 21.46484,21.4648 a 5.0005,5.0005 0 1 0 7.07032,-7.0703 l -26.46485,-26.46485 26.46485,-26.46484 a 5.0005,5.0005 0 0 0 -3.63282,-8.58399 5.0005,5.0005 0 0 0 -3.4375,1.51367 L 216,985.29184 l 0,-37.92969 a 5.0005,5.0005 0 0 0 -5.07617,-5.07031 z m 79,0 A 5.0005,5.0005 0 0 0 285,947.36215 l 0,85.00005 45,0 a 5.0005,5.0005 0 1 0 0,-10 l -35,0 0,-75.00005 a 5.0005,5.0005 0 0 0 -5.07617,-5.07031 z M 90,942.3602 c -0.007,0 -0.0128,0.002 -0.0195,0.002 l -79.98047,0 a 5.0005,5.0005 0 1 0 0,10 l 52.08008,0 C 51.75797,960.61842 45,973.16 45,987.3602 l 0,40 a 5.0005,5.0005 0 1 0 10,0 l 0,-40 c 0,-19.3825 15.60058,-34.98727 34.98047,-34.99805 l 15.01953,0 a 5.0005,5.0005 0 0 0 0,-10 l -15,-0.002 z m 260,0.002 a 5,5 0 0 0 -5,5 5,5 0 0 0 5,5 5,5 0 0 0 5,-5 5,5 0 0 0 -5,-5 z m -0.0762,19.92969 A 5.0005,5.0005 0 0 0 345,967.36215 l 0,60.00005 a 5.0005,5.0005 0 1 0 10,0 l 0,-60.00005 a 5.0005,5.0005 0 0 0 -5.07617,-5.07031 z M 100,962.3602 c -19.27074,0 -35,15.72926 -35,35 0,19.2708 15.72926,35 35,35 l 35,0 0,-35 c 0,-19.27074 -15.72926,-35 -35,-35 z m 380,0 c -19.27075,0 -35.00001,15.72926 -35,35 -10e-6,19.2707 15.72925,35 35,35 l 25,0 a 5.0005,5.0005 0 1 0 0,-10 l -25,0 c -13.86635,0 -25.00001,-11.1337 -25,-25 -10e-6,-13.86634 11.13365,-25 25,-25 12.15182,0 22.19972,8.55296 24.5,20 l -39.5,0.002 a 5.0005,5.0005 0 1 0 0,10 l 50,0 0,-5 c 10e-6,-19.27074 -15.72925,-35 -35,-35 z m -290,0.002 -28,0.002 c -10.98647,0 -20,9.01353 -20,20 0,10.98648 9.013,20.001 20,20 l 16,0 c 5.58146,-6e-4 10,4.4179 10,10 0,5.5821 -4.41793,10 -10,10 l -28,0 a 5.0005,5.0005 0 1 0 0,10 l 28,0 c 10.98647,0 20,-9.0135 20,-20 0,-10.9865 -9.01292,-20.0011 -20,-20 l -16,0.002 c -5.58154,5e-4 -10,-4.41793 -10,-10 0,-5.58206 4.41793,-10 10,-10 l 28,-0.002 a 5.0005,5.0005 0 1 0 0,-10 z m 175,0 0,65 a 5.0005,5.0005 0 1 0 10,0 l 0,-55 25,0 c 13.86634,10e-6 25,11.13366 25,25 l 0,30 a 5.0005,5.0005 0 1 0 10,0 l 0,-30 c 0,-19.27074 -15.72926,-34.99999 -35,-35 l -35,0 z m -265,9.99805 c 13.86634,0 25,11.13366 25,25 l 0,25.00005 -25,0 c -13.86634,0 -25,-11.1337 -25,-25.00005 0,-13.86634 11.13366,-25 25,-25 z M 5,1042.3622 a 5.0005,5.0005 0 1 0 0,10 l 510,0 a 5.0005,5.0005 0 1 0 0,-10 l -510,0 z"
       style="color:#000000;stroke:none;" />
  </g>
</svg>
